<mxfile host="app.diagrams.net" modified="2022-11-04T12:25:19.897Z" agent="5.0 (Windows NT 10.0; Win64; x64) AppleWebKit/537.36 (KHTML, like Gecko) Chrome/105.0.0.0 Safari/537.36" etag="63bNueY0jE8Wk0CBE-wS" version="20.5.1" type="github">
  <diagram id="O5Ff7I8Tnxo4C6UQid6h" name="第 1 页">
    <mxGraphModel dx="2062" dy="1066" grid="1" gridSize="10" guides="1" tooltips="1" connect="1" arrows="1" fold="1" page="1" pageScale="1" pageWidth="827" pageHeight="1169" math="0" shadow="0">
      <root>
        <mxCell id="0" />
        <mxCell id="1" parent="0" />
        <mxCell id="SA3ssjIxAGO3-3DCmBAh-1" value="" style="rounded=0;whiteSpace=wrap;html=1;fillColor=#dae8fc;strokeColor=#6c8ebf;" vertex="1" parent="1">
          <mxGeometry x="40" y="80" width="120" height="260" as="geometry" />
        </mxCell>
        <mxCell id="SA3ssjIxAGO3-3DCmBAh-2" value="HTTP客户端" style="rounded=0;whiteSpace=wrap;html=1;fillColor=#ffe6cc;strokeColor=#d79b00;" vertex="1" parent="1">
          <mxGeometry x="60" y="100" width="80" height="40" as="geometry" />
        </mxCell>
        <mxCell id="SA3ssjIxAGO3-3DCmBAh-3" value="TCP" style="rounded=0;whiteSpace=wrap;html=1;fillColor=#fff2cc;strokeColor=#d6b656;" vertex="1" parent="1">
          <mxGeometry x="60" y="160" width="80" height="40" as="geometry" />
        </mxCell>
        <mxCell id="SA3ssjIxAGO3-3DCmBAh-4" value="IP" style="rounded=0;whiteSpace=wrap;html=1;fillColor=#f8cecc;strokeColor=#b85450;" vertex="1" parent="1">
          <mxGeometry x="60" y="220" width="80" height="40" as="geometry" />
        </mxCell>
        <mxCell id="SA3ssjIxAGO3-3DCmBAh-5" value="数据链路层" style="rounded=0;whiteSpace=wrap;html=1;fillColor=#e1d5e7;strokeColor=#9673a6;" vertex="1" parent="1">
          <mxGeometry x="60" y="280" width="80" height="40" as="geometry" />
        </mxCell>
        <mxCell id="SA3ssjIxAGO3-3DCmBAh-23" style="orthogonalLoop=1;jettySize=auto;html=1;exitX=0.86;exitY=0.85;exitDx=0;exitDy=0;exitPerimeter=0;entryX=0;entryY=0;entryDx=0;entryDy=0;entryPerimeter=0;rounded=0;startArrow=classic;startFill=1;" edge="1" parent="1" source="SA3ssjIxAGO3-3DCmBAh-7" target="SA3ssjIxAGO3-3DCmBAh-17">
          <mxGeometry relative="1" as="geometry" />
        </mxCell>
        <mxCell id="SA3ssjIxAGO3-3DCmBAh-7" value="" style="shape=mxgraph.cisco.computers_and_peripherals.pc;sketch=0;html=1;pointerEvents=1;dashed=0;fillColor=#036897;strokeColor=#ffffff;strokeWidth=2;verticalLabelPosition=bottom;verticalAlign=top;align=center;outlineConnect=0;" vertex="1" parent="1">
          <mxGeometry x="140" y="310" width="40" height="40" as="geometry" />
        </mxCell>
        <mxCell id="SA3ssjIxAGO3-3DCmBAh-9" value="" style="rounded=0;whiteSpace=wrap;html=1;fillColor=#d5e8d4;strokeColor=#82b366;" vertex="1" parent="1">
          <mxGeometry x="640" y="80" width="120" height="260" as="geometry" />
        </mxCell>
        <mxCell id="SA3ssjIxAGO3-3DCmBAh-10" value="HTTP客户端" style="rounded=0;whiteSpace=wrap;html=1;fillColor=#ffe6cc;strokeColor=#d79b00;" vertex="1" parent="1">
          <mxGeometry x="660" y="100" width="80" height="40" as="geometry" />
        </mxCell>
        <mxCell id="SA3ssjIxAGO3-3DCmBAh-11" value="TCP" style="rounded=0;whiteSpace=wrap;html=1;fillColor=#fff2cc;strokeColor=#d6b656;" vertex="1" parent="1">
          <mxGeometry x="660" y="160" width="80" height="40" as="geometry" />
        </mxCell>
        <mxCell id="SA3ssjIxAGO3-3DCmBAh-12" value="IP" style="rounded=0;whiteSpace=wrap;html=1;fillColor=#f8cecc;strokeColor=#b85450;" vertex="1" parent="1">
          <mxGeometry x="660" y="220" width="80" height="40" as="geometry" />
        </mxCell>
        <mxCell id="SA3ssjIxAGO3-3DCmBAh-13" value="数据链路层" style="rounded=0;whiteSpace=wrap;html=1;fillColor=#e1d5e7;strokeColor=#9673a6;" vertex="1" parent="1">
          <mxGeometry x="660" y="280" width="80" height="40" as="geometry" />
        </mxCell>
        <mxCell id="SA3ssjIxAGO3-3DCmBAh-15" value="" style="shape=mxgraph.cisco.computers_and_peripherals.ibm_mini_as400;sketch=0;html=1;pointerEvents=1;dashed=0;fillColor=#036897;strokeColor=#ffffff;strokeWidth=2;verticalLabelPosition=bottom;verticalAlign=top;align=center;outlineConnect=0;" vertex="1" parent="1">
          <mxGeometry x="620" y="310" width="33" height="40" as="geometry" />
        </mxCell>
        <mxCell id="SA3ssjIxAGO3-3DCmBAh-24" style="edgeStyle=none;rounded=0;orthogonalLoop=1;jettySize=auto;html=1;exitX=1;exitY=0.5;exitDx=0;exitDy=0;exitPerimeter=0;entryX=0;entryY=0.5;entryDx=0;entryDy=0;entryPerimeter=0;startArrow=classic;startFill=1;" edge="1" parent="1" source="SA3ssjIxAGO3-3DCmBAh-17" target="SA3ssjIxAGO3-3DCmBAh-19">
          <mxGeometry relative="1" as="geometry" />
        </mxCell>
        <mxCell id="SA3ssjIxAGO3-3DCmBAh-17" value="" style="shape=mxgraph.cisco.switches.layer_2_remote_switch;sketch=0;html=1;pointerEvents=1;dashed=0;fillColor=#036897;strokeColor=#ffffff;strokeWidth=2;verticalLabelPosition=bottom;verticalAlign=top;align=center;outlineConnect=0;" vertex="1" parent="1">
          <mxGeometry x="200" y="380" width="40" height="30" as="geometry" />
        </mxCell>
        <mxCell id="SA3ssjIxAGO3-3DCmBAh-26" style="edgeStyle=none;rounded=0;orthogonalLoop=1;jettySize=auto;html=1;exitX=1;exitY=0;exitDx=0;exitDy=0;exitPerimeter=0;entryX=0;entryY=1;entryDx=0;entryDy=0;entryPerimeter=0;startArrow=classic;startFill=1;" edge="1" parent="1" source="SA3ssjIxAGO3-3DCmBAh-18" target="SA3ssjIxAGO3-3DCmBAh-15">
          <mxGeometry relative="1" as="geometry" />
        </mxCell>
        <mxCell id="SA3ssjIxAGO3-3DCmBAh-18" value="" style="shape=mxgraph.cisco.switches.layer_2_remote_switch;sketch=0;html=1;pointerEvents=1;dashed=0;fillColor=#036897;strokeColor=#ffffff;strokeWidth=2;verticalLabelPosition=bottom;verticalAlign=top;align=center;outlineConnect=0;" vertex="1" parent="1">
          <mxGeometry x="560" y="380" width="40" height="30" as="geometry" />
        </mxCell>
        <mxCell id="SA3ssjIxAGO3-3DCmBAh-29" style="edgeStyle=none;rounded=0;orthogonalLoop=1;jettySize=auto;html=1;exitX=1;exitY=0.5;exitDx=0;exitDy=0;exitPerimeter=0;startArrow=classic;startFill=1;" edge="1" parent="1" source="SA3ssjIxAGO3-3DCmBAh-19" target="SA3ssjIxAGO3-3DCmBAh-27">
          <mxGeometry relative="1" as="geometry" />
        </mxCell>
        <mxCell id="SA3ssjIxAGO3-3DCmBAh-19" value="" style="shape=mxgraph.cisco.routers.atm_router;sketch=0;html=1;pointerEvents=1;dashed=0;fillColor=#036897;strokeColor=#ffffff;strokeWidth=2;verticalLabelPosition=bottom;verticalAlign=top;align=center;outlineConnect=0;" vertex="1" parent="1">
          <mxGeometry x="280" y="380" width="40" height="30" as="geometry" />
        </mxCell>
        <mxCell id="SA3ssjIxAGO3-3DCmBAh-25" style="edgeStyle=none;rounded=0;orthogonalLoop=1;jettySize=auto;html=1;exitX=1;exitY=0.5;exitDx=0;exitDy=0;exitPerimeter=0;startArrow=classic;startFill=1;" edge="1" parent="1" source="SA3ssjIxAGO3-3DCmBAh-22" target="SA3ssjIxAGO3-3DCmBAh-18">
          <mxGeometry relative="1" as="geometry" />
        </mxCell>
        <mxCell id="SA3ssjIxAGO3-3DCmBAh-30" style="edgeStyle=none;rounded=0;orthogonalLoop=1;jettySize=auto;html=1;exitX=0;exitY=0.5;exitDx=0;exitDy=0;exitPerimeter=0;startArrow=classic;startFill=1;" edge="1" parent="1" source="SA3ssjIxAGO3-3DCmBAh-22" target="SA3ssjIxAGO3-3DCmBAh-27">
          <mxGeometry relative="1" as="geometry" />
        </mxCell>
        <mxCell id="SA3ssjIxAGO3-3DCmBAh-22" value="" style="shape=mxgraph.cisco.routers.atm_router;sketch=0;html=1;pointerEvents=1;dashed=0;fillColor=#036897;strokeColor=#ffffff;strokeWidth=2;verticalLabelPosition=bottom;verticalAlign=top;align=center;outlineConnect=0;" vertex="1" parent="1">
          <mxGeometry x="480" y="380" width="40" height="30" as="geometry" />
        </mxCell>
        <mxCell id="SA3ssjIxAGO3-3DCmBAh-27" value="" style="ellipse;shape=cloud;whiteSpace=wrap;html=1;" vertex="1" parent="1">
          <mxGeometry x="360" y="367.5" width="80" height="55" as="geometry" />
        </mxCell>
        <mxCell id="SA3ssjIxAGO3-3DCmBAh-31" value="交换机" style="text;html=1;strokeColor=none;fillColor=none;align=center;verticalAlign=middle;whiteSpace=wrap;rounded=0;" vertex="1" parent="1">
          <mxGeometry x="190" y="410" width="60" height="30" as="geometry" />
        </mxCell>
        <mxCell id="SA3ssjIxAGO3-3DCmBAh-33" value="交换机" style="text;html=1;strokeColor=none;fillColor=none;align=center;verticalAlign=middle;whiteSpace=wrap;rounded=0;" vertex="1" parent="1">
          <mxGeometry x="550" y="410" width="60" height="30" as="geometry" />
        </mxCell>
        <mxCell id="SA3ssjIxAGO3-3DCmBAh-34" value="路由器" style="text;html=1;strokeColor=none;fillColor=none;align=center;verticalAlign=middle;whiteSpace=wrap;rounded=0;" vertex="1" parent="1">
          <mxGeometry x="270" y="410" width="60" height="30" as="geometry" />
        </mxCell>
        <mxCell id="SA3ssjIxAGO3-3DCmBAh-35" value="路由器" style="text;html=1;strokeColor=none;fillColor=none;align=center;verticalAlign=middle;whiteSpace=wrap;rounded=0;" vertex="1" parent="1">
          <mxGeometry x="470" y="410" width="60" height="30" as="geometry" />
        </mxCell>
        <mxCell id="SA3ssjIxAGO3-3DCmBAh-36" value="互联网" style="text;html=1;strokeColor=none;fillColor=none;align=center;verticalAlign=middle;whiteSpace=wrap;rounded=0;" vertex="1" parent="1">
          <mxGeometry x="370" y="422.5" width="60" height="30" as="geometry" />
        </mxCell>
        <mxCell id="SA3ssjIxAGO3-3DCmBAh-37" value="客户端" style="text;html=1;strokeColor=none;fillColor=none;align=center;verticalAlign=middle;whiteSpace=wrap;rounded=0;" vertex="1" parent="1">
          <mxGeometry x="70" y="340" width="60" height="30" as="geometry" />
        </mxCell>
        <mxCell id="SA3ssjIxAGO3-3DCmBAh-38" value="服务端" style="text;html=1;strokeColor=none;fillColor=none;align=center;verticalAlign=middle;whiteSpace=wrap;rounded=0;" vertex="1" parent="1">
          <mxGeometry x="670" y="340" width="60" height="30" as="geometry" />
        </mxCell>
      </root>
    </mxGraphModel>
  </diagram>
</mxfile>
